# xmcd
#
# Track frame offsets: 
#        150
#        21882
#        37932
#
# Disc length: 778 seconds
#
# Revision: 3
# Processed by: cddbd v1.5.2PL0 Copyright (c) Steve Scherf et al.
# Submitted via: ExactAudioCopy v1.2
#
DISCID=18030803
DTITLE=田村ゆかり - Love Parade
DYEAR=2002
DGENRE=Vocal
TTITLE0=Love Parade
TTITLE1=追い風
TTITLE2=Baby blue sky
EXTD=YEAR: 2002
EXTT0=
EXTT1=
EXTT2=
PLAYORDER=
